<svg width="16" height="16" viewBox="0 0 16 16" fill="none" xmlns="http://www.w3.org/2000/svg">
<path d="M14.38 5.675C14.3331 5.62012 14.2748 5.57606 14.2092 5.54585C14.1436 5.51564 14.0722 5.5 14 5.5H11V3.5C11 3.10218 10.842 2.72064 10.5607 2.43934C10.2794 2.15804 9.89783 2 9.5 2H6.5C6.10218 2 5.72064 2.15804 5.43934 2.43934C5.15804 2.72064 5 3.10218 5 3.5V5.5H2C1.92752 5.49918 1.85573 5.51413 1.78961 5.5438C1.72348 5.57348 1.6646 5.61718 1.61704 5.67188C1.56948 5.72657 1.53437 5.79096 1.51417 5.86056C1.49396 5.93017 1.48912 6.00334 1.5 6.075L2.44 12.15C2.47616 12.3885 2.59728 12.6058 2.78105 12.762C2.96481 12.9182 3.19884 13.0027 3.44 13H12.57C12.8112 13.0027 13.0452 12.9182 13.229 12.762C13.4127 12.6058 13.5338 12.3885 13.57 12.15L14.5 6.075C14.51 6.00362 14.5045 5.93091 14.4838 5.86187C14.463 5.79283 14.4277 5.72908 14.38 5.675ZM6 3.5C6 3.36739 6.05268 3.24021 6.14645 3.14645C6.24022 3.05268 6.36739 3 6.5 3H9.5C9.63261 3 9.75979 3.05268 9.85355 3.14645C9.94732 3.24021 10 3.36739 10 3.5V5.5H6V3.5ZM12.57 12H3.43L2.585 6.5H13.415L12.57 12Z" fill="#31363A"/>
</svg>
